<svg xmlns="http://www.w3.org/2000/svg" viewBox="0 0 850.39 193.05"><defs><style>.a{fill:#faa819;}</style></defs><path class="a" d="M848.37,151.54q-28.5-.28-56.8-1.48l.07,0c.77-.21.92-.63.1-.93a6.43,6.43,0,0,0-3-.1c-.89.25-.81.67-.11.93-35.16-1.51-70-4-104.44-7.15,32,1.19,64,2.22,96,2.28,3.48.56,6.94,1.13,10.47,1.67a4.38,4.38,0,0,0,2.63-.42c.27-.31-.42-.71-1.41-.82l-2.93-.43c6.06,0,10.77-1.48,10.72-3.45-.28-2-5.45-3.71-11.74-3.79q-25.25-1.22-50.39-1.94c-1.81-.16-3.63-.34-5.44-.49l-5.45-1.08q39.18-.21,78.12-.82c2.22.07,4.13-.45,4.19-1.15s-1.71-1.34-3.94-1.41q-19.76-1.71-39.64-3.19A90.34,90.34,0,0,0,800,117c-50.35-7.93-102.78-12-155.86-14.53a4.88,4.88,0,0,0-.87-.61,10.86,10.86,0,0,0-2.18-1c16.9.69,33.47,1.13,49.79,1.59q9.31,1.19,18.59,2.42a5.88,5.88,0,0,0,3-.07c.52-.29.43-.72-.52-.91l-4.2-.95c31.35,1,61.94,2.33,92.52,6,3.49.51,7,1.06,10.54,1.61,4.59-3,8.7-6,12.36-8.61,14.35-13,21.55-31.27-7.2-44.3H794.37c-2.84-5.14-1.2-10.69.5-16-46.47-2.79-93-5-139.41-7.33h0c46.56,1.13,93.65,1.42,140.89,2.34,1.57-6.19,1.16-11.74-9.16-15.48-14.37-7.82-64.66,0-93.41-2.61C614.77,8.22,528.56,10.83,449.54,3,392.09-2.2,334.62.4,277.13,3c-79,5.21-165.21-5.21-229.86,5.21-57.48,10.42-17.75,52.1-7.92,71.85,0,5.38,0,10.41,0,15.18-.77.54-1.54,1.08-2.2,1.64l1.53,2.41L37,100c-5.59,1.61-9.38,3.79-10.72,6.19l.46,2.89A15.75,15.75,0,0,0,31,115.36a88.39,88.39,0,0,0-8,22.13l-3.84.26A34.38,34.38,0,0,0,11.83,140c-5.12,5-5.12,5-4.4,7.27a9.93,9.93,0,0,0,1,.66c-4,.64-4.29.69-5.37.89a11.57,11.57,0,0,0-1.92.81c-.2,1.2-.2,1.2-.9,1.61a1.85,1.85,0,0,0-.19.9c2.2,1.38,2.2,1.38,2.25,1.76a8,8,0,0,0,1.24.68l4.07.73,5.69-3,1.19,1.1,1.34-1.39L15,153.35l2.85-.73-3.26,1.07c5.22-.25,6.38-.3,7.9-.26a28.2,28.2,0,0,0,.86,3.43,43.67,43.67,0,0,0-4.53-.26c-8.15,0-14.34,2.05-13.78,4.62-.48,1.75-2.32,3.62-.32,5.18C8.5,169.25,15.25,171,23,171.92l-2.2.46c-15.32,3-19.2,9.43-8.76,14.48s31.25,6.76,46.56,3.8c-.54.46-1.21.9-1.74,1.35a103.5,103.5,0,0,0,13.75-.94c-3,.66-6.07,1.32-9,2,15.36-1.61,29.3-3.92,40.77-7.52a43.11,43.11,0,0,1,5.09-.8,30.4,30.4,0,0,0,10.07-1.49c18.32-.55,35.82-2.25,50.21-5.59a74.07,74.07,0,0,0,17.44-1.48l.28,0c-1.34.55-2.58,1.11-3.92,1.65,4.72-.31,7.26-1.69,11.57-2.19-.51.78-1.13,1.55-1.64,2.34,23.26-.91,48.36.39,69.95-2.52.87,0,1.68-.09,2.49-.15,9.21,1.9,18.54,3.74,29.52,4.23l-11.09.49a171.1,171.1,0,0,0,24.37,2.21c23.11.35,49.06-2.68,61.43-8.6C410,175.35,452,177,493.83,179.36c-.46.12-.76.31-.73.53s1.14.65,2.35.66c35.81-.37,71.59-.35,107.55-.13,1.11,0,2.06-.28,2-.6s-1-.68-2.26-.68q-48-.37-96,0a1.42,1.42,0,0,0,.39-.3c.26-.69-1.25-1.42-3.55-1.57-32-3.26-64.46-5.37-97-7.29,27.26-.55,54.65-1,82.55-.58l10.7.57a93.1,93.1,0,0,0,10.57-.11c35.64.85,69.47,1.3,105.79,4,31,2.3,58.14,4.6,89,7.57,43.35,4.18,82.83,8.3,125.74,9.38,5.7.36,11-.81,11.74-2.61s-3.37-3.54-9.09-3.9c-89.35-7.81-177-16.77-270.62-18.21-10.1-.15-20-.3-29.91-.42a1.63,1.63,0,0,0,.27-.73c0-1-.89-1.91-2.45-2.71q16.83,0,33.88-.32c31.49,2.85,63,5.7,96.67,5.48,23.11-.19,44.06-1.79,65.46-3.23,27,1.8,54,3.9,81.29,5.54a4.12,4.12,0,0,0,2.62-.34c.4-.34-.18-.71-1.28-.86-18.73-2.71-37.95-4.87-57.35-6.87,3.1-1,5-2.46,4.75-4.07s-2.54-3.2-6.14-4.34c4.4.06,8.81.15,13.22.21,2.72,0,4.88-.58,4.82-1.4s-2.18-1.59-4.78-1.63q-27-.52-53.87-1c-21.51-1.45-43-2.77-64.52-4,3-1,5.26-2.31,6.34-3.81a0,0,0,0,0,0,0c3.34.11,6.67.24,10,.37,60.84,6.14,123.17,10.26,186.1,10.92,1.24,0,2.26-.24,2.29-.63S849.48,151.54,848.37,151.54ZM39.44,101.3v.18l-.09-.13Z"/></svg>