<svg xmlns="http://www.w3.org/2000/svg" viewBox="0 0 794 69.16"><defs><style>.a{fill:#fff;}</style></defs><path class="a" d="M211.28,1l.63,2.31c9.83,0,2.86-2.65,11.94-2.08,3.55,3.27,15.09-.34,18.23,1.4-.07-.26,4.38-.36,4.1-1.38,1.36,1.78,4.58.41,7.38.87,1,.49-.75.53-1.51,1.07l6.43.63c2.51-.57,3.13-1.62.4-1.81C275.67,1.36,356.31-.34,374.4.55c-2.33,1.34-7.91.44-10,2.55,4.78,1.18,7-.41,9.15.83C375.36.79,384,3.18,387.65,0L389,1.78,391.4.69c21,1.85,4.81.9,23.46.48,10.79.27,15.92,2.74,21.93,1.83-.89,0-3.27,1.11-.48,1.56.48-1.56,7.44,1.12,8.8-.46,2.74.2,11.61,0,8.61,2.13,1.51-1.07,9.42-1.5,4.71-2.43,2.67-.06,5.26-.38,7.18.09l-3.43.6c9,.31,13.93-1.34,19.81.59l-3.33.85c5.39.13,9.9.29,12-1.82l-5.54-.65c8.94,0,14.33.19,21.79,1.32l-2.66.06c9.5,2.11,59.17,3.85,67.91,6.5l-4,1.64,7.52,1.38c-.89,0-3.63-5.32-4.38-4.79,16.12.15,100,1.43,114.87.32,6-.91,1.08-2.6,1-2.86,7.31.61,3.15,1.74,9.37,1.6,1.7-.3-.35-1.29-1.31-1.52,2.72.19,5.25-.37,5.46.39-3.41.59-2,2.63-3.41,3.95l8-.18L704.93,10c1.78,0,4.52,3.51,12.38,2.82,13.25-.56,27.64-.11,41-.4-.21-.77-3-1.23-5.81-1.68,1.79,0,4.51.16,6.15-.4-3.22,1.36,5.59.91,3.08,1.48,9.76,3.14,23.69.27,32.3,2.4V68.05c-14.88,2.11,3-2.54-11.67.47l.08.26c-10.31,1.52-15.78-2.23-25.2-.73l1,.49c-3.33.85-9.89-.29-15.89.62,1.71-.3,3.2-1.36-.41-1.54-6.91.93-11.62,0-16.67,1.15l-4.85-1.44c-24,.28-119-1.77-143.2-2l.95.23C541.34,64.84,465.78,65,427.74,63c-5.88,1.42-14,1.08-20.14,1.48,3.41-.59,2.24-1.6-.42-1.54-18.7.16-1.26-1-20.18-1.59-21.78-1.32-105.14.18-124.47,1.39-10.39-2.09-23.35-.51-33.53-1.83l1,.49c-10.92-.79-72.77,1.15-85.48.4l1.71-.3c-11.07-1.3-9.57,1-18.29,1.7,1.15-2.35-8.34-3.68-12-3.86l.14.51c-5.46-.4-17.82-2.43-26.83-2.75l.35,1.28C82.13,57,68,57.56,62.6,57.42c-12.36.53-31.41,2.77-47.93,1.07L4,62.15l-4,.56V14.52L7.5,12A54.52,54.52,0,0,1,19,9c6,0,7.79-1.87,14-2,32.77-1,63.36-5.47,96.48-5.18.75-.53-.14-.51-1.1-.75,10,.55,18.85.35,27.94.93a8.21,8.21,0,0,0,4-1.9C158.78,1.17,210.46,1.27,211.28,1Z" transform="translate(0 0)"/></svg>