<svg xmlns="http://www.w3.org/2000/svg" viewBox="0 0 518.03 69"><defs><style>.a{fill:#a7d6a6;}</style></defs><path class="a" d="M138,1l.41,2.3c6.42,0,1.87-2.64,7.8-2.07,2.32,3.26,9.85-.34,11.9,1.39,0-.26,2.86-.36,2.68-1.37.89,1.77,3,.41,4.82.87.67.48-.49.52-1,1.06l4.2.63c1.64-.57,2-1.62.26-1.8,11-.64,63.63-2.34,75.45-1.45C243,1.89,239.34,1,238,3.09c3.12,1.18,4.59-.41,6,.83,1.2-3.13,6.86-.75,9.23-3.92l.89,1.78L255.61.69c13.74,1.84,3.14.9,15.32.48C278,1.44,281.33,3.9,285.25,3c-.58,0-2.14,1.11-.31,1.56.31-1.56,4.86,1.12,5.74-.46,1.79.2,7.59,0,5.63,2.13,1-1.07,6.15-1.5,3.07-2.43,1.75-.06,3.44-.38,4.69.09l-2.24.6c5.89.31,9.1-1.34,12.94.59l-2.18.85c3.52.13,6.47.29,7.85-1.82l-3.61-.65c5.83,0,9.35.19,14.23,1.32l-1.74.06c6.2,2.1,38.64,3.84,44.35,6.48L371,13,376,14.33c-.58,0-2.37-5.31-2.86-4.78,10.52.15,65.29,1.42,75,.32,3.93-.91.71-2.6.66-2.86,4.78.61,2.06,1.74,6.12,1.6,1.11-.3-.23-1.29-.85-1.52,1.77.19,3.43-.37,3.56.39-2.22.59-1.28,2.63-2.22,3.94l5.22-.18L460.36,10c1.16,0,2.95,3.5,8.09,2.81,8.65-.56,18.05-.11,26.75-.4-.13-.77-2-1.23-3.79-1.67,1.17,0,2.94.15,4-.4-2.1,1.35,3.66.9,2,1.47,6.37,3.14,14.94.26,20.56,2.39.06,4.36,0,46.71,0,53.73-9.72,2.1,2.49-2.54-7.09.46l0,.26c-6.73,1.52-10.3-2.22-16.46-.73l.66.49c-2.17.85-6.46-.29-10.37.62,1.11-.3,2.09-1.36-.27-1.54-4.51.93-7.59,0-10.89,1.15l-3.17-1.44c-15.7.28-77.74-1.76-93.51-2l.62.23c-24-.72-73.39-.61-98.23-2.59-3.84,1.42-9.14,1.08-13.15,1.48,2.22-.59,1.46-1.6-.28-1.54-12.21.16-.82-1-13.18-1.58-14.22-1.32-68.66.18-81.28,1.38-6.79-2.08-15.25-.5-21.9-1.82l.67.49c-7.13-.79-47.53,1.15-55.83.4l1.12-.3c-7.23-1.3-6.25,1-11.94,1.69.75-2.34-5.45-3.67-7.82-3.85l.1.51c-3.57-.4-11.64-2.42-17.53-2.74l.23,1.28c-4.91-1.36-14.14-.79-17.67-.93-8.07.53-20.51,2.76-31.3,1.06L2.61,62,0,62.56V14.49L4.9,12C8.82,10,9,9.9,12.41,9c3.92,0,5.09-1.87,9.14-2,21.4-1,41.38-5.45,63-5.16.49-.53-.09-.51-.72-.75,6.52.55,12.31.35,18.25.93a5.08,5.08,0,0,0,2.58-1.9C103.69,1.17,137.44,1.27,138,1Z" transform="translate(0 0)"/></svg>